<?xml version="1.0" encoding="UTF-8"?><svg xmlns="http://www.w3.org/2000/svg" xmlns:xlink="http://www.w3.org/1999/xlink" viewBox="0 0 1024 1024"><defs><style>.n,.o{font-size:250px;}.n,.o,.p{font-family:HiraKakuStd-W8-83pv-RKSJ-H, Hiragino Kaku Gothic Std;}.q,.r,.s,.t,.u{stroke:#000;stroke-linecap:round;}.q,.r,.s,.t,.u,.o{stroke-miterlimit:10;}.q,.r,.t,.o{stroke-width:30px;}.q,.v{fill:#fff;}.r,.t{fill:none;}.s{filter:url(#g);}.s,.u{stroke-width:20px;}.t{filter:url(#c);}.u{fill:#f2f2f2;filter:url(#e);}.o{filter:url(#l);stroke:#fff;}.p{filter:url(#i);font-size:70px;}</style><filter id="c" filterUnits="userSpaceOnUse"><feOffset dx="7" dy="7"/><feGaussianBlur result="d" stdDeviation="5"/><feFlood flood-color="#000" flood-opacity=".3"/><feComposite in2="d" operator="in"/><feComposite in="SourceGraphic"/></filter><filter id="e" filterUnits="userSpaceOnUse"><feOffset dx="7" dy="7"/><feGaussianBlur result="f" stdDeviation="5"/><feFlood flood-color="#000" flood-opacity=".3"/><feComposite in2="f" operator="in"/><feComposite in="SourceGraphic"/></filter><filter id="g" filterUnits="userSpaceOnUse"><feOffset dx="7" dy="7"/><feGaussianBlur result="h" stdDeviation="5"/><feFlood flood-color="#000" flood-opacity=".3"/><feComposite in2="h" operator="in"/><feComposite in="SourceGraphic"/></filter><filter id="i" filterUnits="userSpaceOnUse"><feOffset dx="7" dy="7"/><feGaussianBlur result="j" stdDeviation="5"/><feFlood flood-color="#000" flood-opacity=".3"/><feComposite in2="j" operator="in"/><feComposite in="SourceGraphic"/></filter><filter id="l" filterUnits="userSpaceOnUse"><feOffset dx="12" dy="12"/><feGaussianBlur result="m" stdDeviation="12"/><feFlood flood-color="#000" flood-opacity=".6"/><feComposite in2="m" operator="in"/><feComposite in="SourceGraphic"/></filter></defs><g id="a"><rect class="v" x="12" y="12" width="1000" height="1000" rx="327.76" ry="327.76"/></g><g id="b"><path class="r" d="M641.5,527.63c-33.05,59.75-88.2,107.42-158.46,129.59-145.37,45.86-300.39-34.81-346.25-180.18s34.81-300.39,180.18-346.25c145.37-45.86,300.39,34.81,346.25,180.18,11.46,36.34,15.02,73.29,11.64,108.98"/><rect class="q" x="592" y="701" width="311" height="130" rx="37.86" ry="37.86" transform="translate(760.58 -304.21) rotate(45)"/><path class="t" d="M641.5,527.63c-33.05,59.75-88.2,107.42-158.46,129.59-145.37,45.86-300.39-34.81-346.25-180.18s34.81-300.39,180.18-346.25c145.37-45.86,300.39,34.81,346.25,180.18,11.46,36.34,15.02,73.29,11.64,108.98"/><rect class="u" x="554.67" y="637.91" width="189.14" height="61.18" rx="30.59" ry="30.59" transform="translate(662.86 -263.28) rotate(45)"/><rect class="s" x="592" y="701" width="311" height="130" rx="37.86" ry="37.86" transform="translate(760.58 -304.21) rotate(45)"/><text class="p" transform="translate(211.29 317.66)"><tspan x="0" y="0">The</tspan></text></g><g id="k"><g><text class="o" transform="translate(91.13 560.41)"><tspan x="0" y="0">Faker</tspan></text><text class="n" transform="translate(91.13 560.41)"><tspan x="0" y="0">Faker</tspan></text></g></g></svg>